<svg xmlns="http://www.w3.org/2000/svg" width="250" height="208.333" viewBox="0 0 250 208.333"><g fill="#FFF"><path d="M190.89 44.63c-4.64-5.464-9.234-10-12.07-12.638L148.964 2.94c-2.16 2.385-4.07 5.422-4.07 8.895v134.46c0 3.724 2.826 7.093 5.27 9.528l28.73-27.414V33.563c6 6.352 25.434 25.436 25.434 46.436h2.24c0-13-7.906-26.216-15.68-35.37zM38.748 104.12c-2.54 2.542-3.837 6.88-3.908 9.88h39.48l31.373-32h29.5c1.232 0 2.24-.386 2.24-1 0-.613-1.008-1-2.24-1h-27.26l31.96-33.462v96.854c0 1.233.368 2.24 1 2.24.634 0 1-1.007 1-2.24V4.292c-4 .195-5.86 1.81-8.26 4.21l-94.885 95.62z"/></g><g fill="#FFF"><path d="M2.5 205.225l14.893-36.508 14.892 36.508h-5.43l-1.094-2.888H9.076l-1.146 2.888H2.5zm8.368-7.57h13.05l-6.525-16.735-6.525 16.735zM71.83 168.767c2.458 0 4.758.48 6.9 1.445 2.14.963 4.01 2.274 5.603 3.935 1.593 1.66 2.855 3.595 3.786 5.802.927 2.207 1.394 4.573 1.394 7.096 0 2.524-.45 4.89-1.345 7.1-.898 2.208-2.136 4.132-3.712 5.776-1.578 1.644-3.445 2.948-5.603 3.91-2.158.962-4.5 1.445-7.023 1.445h-12.75v-36.51h12.75zm-.597 31.827c1.86 0 3.57-.356 5.13-1.072 1.56-.716 2.906-1.688 4.036-2.92 1.127-1.232 2.007-2.67 2.638-4.316.63-1.647.946-3.4.946-5.265 0-1.862-.316-3.617-.946-5.262-.63-1.647-1.52-3.086-2.665-4.317-1.145-1.23-2.5-2.203-4.06-2.918-1.56-.715-3.254-1.073-5.08-1.073H64.41v27.144h6.823zM116.31 205.225l14.89-36.508 14.893 36.508h-5.43l-1.095-2.888h-16.686l-1.146 2.888h-5.427zm8.366-7.57h13.05L131.2 180.92l-6.524 16.735zM197.045 168.717v.05l-11.306 24.605v12.003h-5.33v-12.003l-11.307-24.605h.05l-.05-.05h5.927l8.07 19.524 8.068-19.523h5.877zM243.864 187.096c.232.166.45.357.648.572.198.216.38.423.548.624.762.962 1.36 2.016 1.793 3.162.43 1.145.647 2.35.647 3.61 0 .3-.017.533-.05.698-.1 1.86-.665 3.536-1.693 5.03-.93 1.395-2.125 2.5-3.586 3.312-1.46.815-3.087 1.22-4.88 1.22h-3.287c-1.793 0-3.42-.405-4.88-1.22-1.462-.812-2.657-1.917-3.586-3.312-.267-.398-.532-.863-.798-1.394l4.63-3.585c.1.63.308 1.22.624 1.768s.706 1.03 1.17 1.445c.466.415.997.74 1.595.97.596.234 1.227.35 1.892.35h1.992c1.36 0 2.54-.44 3.536-1.32.996-.88 1.594-1.968 1.793-3.262 0-.132.008-.266.025-.4.016-.13.025-.263.025-.398 0-.73-.133-1.41-.4-2.04-.265-.63-.63-1.188-1.095-1.67-.465-.48-1.013-.87-1.643-1.17-.63-.3-1.295-.465-1.992-.498h-3.038c-1.23-.033-2.383-.275-3.46-.722-1.08-.45-2.052-1.055-2.915-1.82-.466-.33-.864-.728-1.196-1.194-.765-.962-1.362-2.016-1.793-3.163-.43-1.145-.646-2.348-.646-3.61v-.697c.166-1.893.747-3.568 1.743-5.03.93-1.395 2.124-2.498 3.586-3.313 1.46-.813 3.088-1.22 4.882-1.22h3.237c1.794 0 3.43.407 4.906 1.22 1.477.814 2.68 1.918 3.612 3.313.1.166.207.348.324.548.115.2.224.382.324.547l-4.533 3.536c-.3-1.195-.93-2.19-1.892-2.987-.964-.796-2.075-1.195-3.337-1.195H234.7c-.665 0-1.304.117-1.917.35-.615.23-1.154.555-1.62.97-.464.415-.854.905-1.17 1.47-.316.564-.523 1.163-.623 1.792-.033.133-.05.267-.05.4v.397c0 .73.132 1.412.4 2.043.263.63.63 1.188 1.094 1.67.466.48 1.012.87 1.644 1.168.63.3 1.295.466 1.993.5h3.04c1.227.032 2.38.273 3.46.72 1.08.448 2.05 1.054 2.914 1.818z"/></g></svg>